<svg width="24" height="24" viewBox="0 0 24 24" fill="none" xmlns="http://www.w3.org/2000/svg">
<rect width="24" height="24" rx="8" fill="#30E0A1"/>
<path d="M11.815 17.09C11.575 17.09 11.39 17.02 11.26 16.88C11.13 16.73 11.065 16.525 11.065 16.265V10.415C11.065 10.155 11.13 9.955 11.26 9.815C11.39 9.675 11.575 9.605 11.815 9.605C12.055 9.605 12.24 9.675 12.37 9.815C12.51 9.955 12.58 10.155 12.58 10.415V16.265C12.58 16.525 12.515 16.73 12.385 16.88C12.255 17.02 12.065 17.09 11.815 17.09ZM11.815 8.045C11.515 8.045 11.28 7.97 11.11 7.82C10.95 7.67 10.87 7.46 10.87 7.19C10.87 6.91 10.95 6.7 11.11 6.56C11.28 6.41 11.515 6.335 11.815 6.335C12.115 6.335 12.345 6.41 12.505 6.56C12.675 6.7 12.76 6.91 12.76 7.19C12.76 7.46 12.675 7.67 12.505 7.82C12.345 7.97 12.115 8.045 11.815 8.045Z" fill="#282F39"/>
</svg>
