<svg width="24" height="24" viewBox="0 0 24 24" fill="none" xmlns="http://www.w3.org/2000/svg">
<g clip-path="url(#clip0_203_2954)">
<path fill-rule="evenodd" clip-rule="evenodd" d="M0 3C0 1.34314 1.34315 0 3 0H21C22.6569 0 24 1.34315 24 3V21C24 22.6569 22.6569 24 21 24H3C1.34314 24 0 22.6569 0 21V3ZM3 2C2.44771 2 2 2.44772 2 3V21C2 21.5523 2.44772 22 3 22H21C21.5523 22 22 21.5523 22 21V3C22 2.44771 21.5523 2 21 2H3Z" fill="#5D6588"/>
<path d="M6.65018 6.75565H4.91204C4.43168 6.75565 4.04297 7.14436 4.04297 7.62472C4.04297 8.10509 4.43168 8.49379 4.91204 8.49379H6.65018V10.232C6.65018 10.7123 7.03889 11.101 7.51925 11.101C7.99962 11.101 8.38832 10.7123 8.38832 10.232V8.49379H10.1265C10.6068 8.49379 10.9955 8.10509 10.9955 7.62472C10.9955 7.14436 10.6068 6.75565 10.1265 6.75565H8.38832V5.01751C8.38832 4.53715 7.99962 4.14844 7.51925 4.14844C7.03889 4.14844 6.65018 4.53715 6.65018 5.01751V6.75565Z" fill="#5D6588"/>
<path d="M13.8586 8.49595H19.1309C19.6113 8.49595 20 8.10724 20 7.62688C20 7.14651 19.6113 6.75781 19.1309 6.75781H13.8586C13.3782 6.75781 12.9895 7.14651 12.9895 7.62688C12.9895 8.10724 13.3782 8.49595 13.8586 8.49595Z" fill="#5D6588"/>
<path d="M13.8586 19.1756H19.1309C19.6113 19.1756 20 18.7869 20 18.3066C20 17.8262 19.6113 17.4375 19.1309 17.4375H13.8586C13.3782 17.4375 12.9895 17.8262 12.9895 18.3066C12.9895 18.7869 13.3782 19.1756 13.8586 19.1756Z" fill="#5D6588"/>
<path d="M13.8586 15.6991H19.1309C19.6113 15.6991 20 15.3104 20 14.83C20 14.3496 19.6113 13.9609 19.1309 13.9609H13.8586C13.3782 13.9609 12.9895 14.3496 12.9895 14.83C12.9895 15.3104 13.3782 15.6991 13.8586 15.6991Z" fill="#5D6588"/>
<path d="M9.97712 19.0298C10.3166 18.6903 10.3166 18.1403 9.97712 17.8009L8.74819 16.5719L9.97712 15.343C10.3166 15.0036 10.3166 14.4536 9.97712 14.1141C9.63766 13.7746 9.08765 13.7746 8.74819 14.1141L7.51927 15.343L6.29034 14.1141C5.95088 13.7746 5.40088 13.7746 5.06142 14.1141C4.72196 14.4536 4.72196 15.0036 5.06142 15.343L6.29034 16.5719L5.06142 17.8009C4.72196 18.1403 4.72196 18.6903 5.06142 19.0298C5.40088 19.3692 5.95088 19.3692 6.29034 19.0298L7.51927 17.8009L8.74819 19.0298C9.08765 19.3692 9.63766 19.3692 9.97712 19.0298Z" fill="#5D6588"/>
</g>
<defs>
<clipPath id="clip0_203_2954">
<rect width="24" height="24" fill="white"/>
</clipPath>
</defs>
</svg>
