<svg width="132" height="132" viewBox="0 0 132 132" fill="none" xmlns="http://www.w3.org/2000/svg">
<path d="M39.5996 101.199C40.378 101.199 41.1635 101.175 41.9343 101.128L41.6649 96.7358C40.9833 96.7777 40.2885 96.7989 39.5996 96.7989C34.6785 96.7989 30.0857 95.7532 26.6672 93.8539C23.7009 92.2061 21.9996 90.0719 21.9996 87.9989C22.0016 87.5056 22.0904 87.0166 22.262 86.5541L18.1295 85.0437C17.7807 85.99 17.6013 86.9904 17.5996 87.9989C17.5996 95.4008 27.2631 101.199 39.5996 101.199Z" fill="#758091"/>
<path d="M2.2 15.4C4.53309 15.4026 6.76987 16.3306 8.41962 17.9804C10.0694 19.6301 10.9974 21.8669 11 24.2C11 24.7835 11.2318 25.3431 11.6444 25.7556C12.0569 26.1682 12.6165 26.4 13.2 26.4C13.7835 26.4 14.3431 26.1682 14.7556 25.7556C15.1682 25.3431 15.4 24.7835 15.4 24.2C15.4026 21.8669 16.3306 19.6301 17.9804 17.9804C19.6301 16.3306 21.8669 15.4026 24.2 15.4C24.7835 15.4 25.3431 15.1682 25.7556 14.7556C26.1682 14.3431 26.4 13.7835 26.4 13.2C26.4 12.6165 26.1682 12.0569 25.7556 11.6444C25.3431 11.2318 24.7835 11 24.2 11C21.8669 10.9974 19.6301 10.0694 17.9804 8.41962C16.3306 6.76987 15.4026 4.53309 15.4 2.2C15.4 1.61652 15.1682 1.05694 14.7556 0.644365C14.3431 0.231785 13.7835 0 13.2 0C12.6165 0 12.0569 0.231785 11.6444 0.644365C11.2318 1.05694 11 1.61652 11 2.2C10.9974 4.53309 10.0694 6.76987 8.41962 8.41962C6.76987 10.0694 4.53309 10.9974 2.2 11C1.61652 11 1.05694 11.2318 0.644365 11.6444C0.231785 12.0569 0 12.6165 0 13.2C0 13.7835 0.231785 14.3431 0.644365 14.7556C1.05694 15.1682 1.61652 15.4 2.2 15.4ZM13.2 9.48938C14.1783 10.9603 15.4396 12.2216 16.9105 13.2C15.4396 14.1784 14.1783 15.4397 13.2 16.9106C12.2217 15.4397 10.9604 14.1784 9.48951 13.2C10.9604 12.2216 12.2217 10.9603 13.2 9.48938Z" fill="#758091"/>
<path d="M42.0679 69.8129L45.0601 66.587C39.511 61.4393 36.0514 54.4288 35.3415 46.893C34.6316 39.3573 36.721 31.824 41.2111 25.7306C45.7012 19.6371 52.2775 15.4101 59.6854 13.8561C67.0932 12.3021 74.8139 13.53 81.3742 17.3053L83.5739 13.4945C76.0768 9.17601 67.2519 7.76966 58.7838 9.54393C50.3157 11.3182 42.7975 16.1488 37.6645 23.1137C32.5315 30.0785 30.1431 38.6897 30.9553 47.3035C31.7675 55.9173 35.7235 63.9303 42.0679 69.8129Z" fill="#758091"/>
<path d="M78.5129 41.1125H68.0629V30.6625C68.0629 29.2198 66.8944 28.05 65.4504 28.05C64.0064 28.05 62.8379 29.2198 62.8379 30.6625V41.1125H52.3879C50.9439 41.1125 49.7754 42.2823 49.7754 43.725C49.7754 45.1678 50.9439 46.3375 52.3879 46.3375H62.8379V56.7875C62.8379 58.2303 64.0064 59.4 65.4504 59.4C66.8944 59.4 68.0629 58.2303 68.0629 56.7875V46.3375H78.5129C79.9569 46.3375 81.1254 45.1678 81.1254 43.725C81.1254 42.2823 79.9569 41.1125 78.5129 41.1125Z" fill="#758091"/>
<path d="M66.0004 74.8006C60.9927 74.8003 56.0602 73.5816 51.6286 71.2495L49.5723 75.1392C56.9228 79.0165 65.408 80.1683 73.5261 78.3909C81.6442 76.6135 88.8718 72.0214 93.9296 65.4273C98.9875 58.8333 101.549 50.6625 101.162 42.3611C100.775 34.0597 97.4632 26.163 91.8134 20.0686L88.5875 23.0608C92.6615 27.4554 95.3651 32.9429 96.3669 38.8511C97.3688 44.7592 96.6254 50.8313 94.2279 56.3232C91.8304 61.8152 87.8828 66.4885 82.869 69.7704C77.8552 73.0524 71.9929 74.8005 66.0004 74.8006Z" fill="#758091"/>
<path d="M119.821 54.1313C120.606 50.8114 121.001 47.4114 121 44C121 19.7382 101.262 0 77 0H66C41.7384 0 22 19.7382 22 44C21.9955 49.2664 22.9411 54.4903 24.7915 59.4209C18.1921 61.4771 12.4674 64.856 8.09719 69.3091C2.79995 74.7071 0 81.1704 0 88V103.4C0 111.187 4.22101 118.455 11.8854 123.865C19.3173 129.111 29.1598 132 39.6 132C50.0402 132 59.8827 129.111 67.3146 123.865C71.2803 121.066 74.3213 117.768 76.3356 114.159C81.5344 115.788 86.952 116.611 92.4 116.6C102.84 116.6 112.683 113.711 120.115 108.465C127.779 103.055 132 95.7867 132 88V74.8C132 66.9522 127.585 59.5019 119.821 54.1313ZM127.6 74.8C127.6 88.144 111.809 99 92.4 99C87.9396 99.0152 83.4982 98.4185 79.2 97.2267V92.7186C83.4855 93.9825 87.9321 94.6163 92.4 94.6C100.441 94.6 108.032 92.6535 113.776 89.1188C119.853 85.3792 123.2 80.2938 123.2 74.8C123.2 70.3719 120.948 66.1119 116.834 62.6758C117.458 61.3497 118.015 59.9931 118.503 58.6111C124.32 63.0478 127.6 68.8239 127.6 74.8ZM94.6 103.355C97.5576 103.243 100.501 102.887 103.4 102.291V110.988C100.508 111.64 97.5623 112.029 94.6 112.151V103.355ZM107.714 101.2C110.801 100.28 113.781 99.0299 116.6 97.4707V105.557C113.856 107.323 110.899 108.734 107.8 109.758V101.2H107.714ZM108.322 19.8C110.415 22.4987 112.149 25.4566 113.483 28.6H107.216C106.056 25.5071 104.551 22.5551 102.728 19.8H108.322ZM118.8 74.8C118.8 78.7085 116.197 82.4627 111.47 85.3714C106.41 88.4853 99.6378 90.2 92.4 90.2C87.9146 90.2261 83.4553 89.5156 79.2 88.0969V88C79.2 87.9817 79.1987 87.9633 79.1986 87.945C86.4082 87.5789 93.4172 85.4459 99.6086 81.734C105.8 78.022 110.984 72.8449 114.704 66.6584C117.357 69.1101 118.8 71.9465 118.8 74.8ZM109.945 41.8C109.799 38.8289 109.351 35.8803 108.608 33H115.044C115.874 35.8673 116.375 38.8195 116.538 41.8H109.945ZM109.945 46.2H116.538C116.375 49.1805 115.874 52.1327 115.044 55H108.608C109.351 52.1197 109.799 49.1711 109.945 46.2ZM107.216 59.4H113.483C112.149 62.5434 110.415 65.5013 108.322 68.2H102.728C104.551 65.4449 106.056 62.4929 107.216 59.4ZM99.4088 72.6H104.362C99.792 76.9801 94.239 80.2014 88.168 81.994C92.4101 79.5079 96.2089 76.3332 99.4088 72.6ZM104.362 15.4H99.4088C96.2089 11.6668 92.4101 8.49211 88.168 6.00596C94.239 7.7986 99.792 11.0199 104.362 15.4ZM66 4.4C87.8355 4.4 105.6 22.1644 105.6 44C105.6 65.8356 87.8355 83.6 66 83.6C44.1645 83.6 26.4 65.8356 26.4 44C26.4 22.1644 44.1645 4.4 66 4.4ZM11.2375 72.3911C15.1352 68.4193 20.506 65.3087 26.5564 63.4826C27.2203 64.8215 27.9521 66.1257 28.7488 67.3901C16.8248 70.5513 8.8 78.6568 8.8 88C8.8 91.5108 9.97076 94.9975 12.1857 98.0829L15.7601 95.5171C14.0614 93.1506 13.2 90.6216 13.2 88C13.2 84.1081 15.1047 80.4053 18.7082 77.2922C21.9851 74.4613 26.4713 72.3541 31.4866 71.2603C32.5491 72.6034 33.6885 73.8839 34.899 75.0953C30.2688 75.6841 26.0669 77.1351 22.9548 79.272L25.4452 82.8991C28.8694 80.5484 34.0286 79.2 39.6 79.2V79.1777C44.7741 83.077 50.7484 85.7804 57.0928 87.0934C57.1622 87.3906 57.1982 87.6947 57.2 88C57.2 91.0774 53.4283 94.1862 47.8146 95.7357L48.9855 99.9773C56.7664 97.8291 61.6 93.2398 61.6 88C61.6 87.9267 61.597 87.8534 61.5951 87.7802C63.0442 87.9249 64.5125 87.9981 66 88H74.8C74.8 102.557 59.0094 114.4 39.6 114.4C20.1906 114.4 4.4 102.557 4.4 88C4.4 82.3467 6.76436 76.9492 11.2375 72.3911ZM15.4 112.402C18.1741 114.06 21.126 115.4 24.2 116.397V125.158C21.1012 124.134 18.1444 122.723 15.4 120.957V112.402ZM28.6 117.603C31.4936 118.245 34.4385 118.63 37.4 118.752V127.551C34.4377 127.429 31.4924 127.04 28.6 126.388V117.603ZM41.8 118.752C44.7615 118.63 47.7064 118.245 50.6 117.603V126.388C47.7076 127.04 44.7623 127.429 41.8 127.551V118.752ZM55 116.397C58.074 115.4 61.0259 114.06 63.8 112.402V120.957C61.0556 122.723 58.0988 124.134 55 125.158V116.397ZM4.4 103.4V102.169C6.22554 104.874 8.45085 107.287 11 109.325V117.491C6.84835 113.52 4.4 108.653 4.4 103.4ZM68.2 117.491V109.325C70.7492 107.287 72.9745 104.874 74.8 102.169V103.4C74.8 108.653 72.3517 113.52 68.2 117.491ZM79.2 103.4V101.783C82.8013 102.692 86.4883 103.219 90.2 103.356V112.152C86.1031 111.983 82.0441 111.295 78.1199 110.106C78.8342 107.942 79.1988 105.679 79.2 103.4ZM127.6 88C127.6 93.2531 125.152 98.1199 121 102.091V94.6177C123.525 92.7523 125.75 90.5128 127.6 87.9763V88Z" fill="#758091"/>
<path d="M22.6982 101.48L20.5479 105.319C26.0136 108.381 32.6019 109.999 39.6005 109.999C52.5084 109.999 64.1353 104.212 68.5324 95.5996L64.6136 93.5988C60.9491 100.777 50.8971 105.599 39.6005 105.599C33.4425 105.599 27.4398 104.136 22.6982 101.48Z" fill="#758091"/>
<path d="M92.3996 123.2C88.8451 123.204 85.2977 122.881 81.8022 122.236L80.9971 126.562C84.7582 127.256 88.575 127.604 92.3996 127.6C102.52 127.6 112.392 125.154 120.198 120.712L118.022 116.888C110.869 120.958 101.769 123.2 92.3996 123.2Z" fill="#758091"/>
<path d="M121.885 114.373L124.514 117.9C126.197 116.653 127.766 115.26 129.204 113.737L125.995 110.726C124.735 112.06 123.359 113.28 121.885 114.373Z" fill="#758091"/>
<path d="M12.7332 30.2522C12.3455 31.7585 12.0184 33.3008 11.7607 34.8364L16.1 35.5647C16.337 34.1524 16.638 32.7339 16.9943 31.3489L12.7332 30.2522Z" fill="#758091"/>
<path d="M11.1881 39.4195C11.0633 40.9336 11 42.4749 11 44.0003C10.9977 48.6377 11.58 53.2569 12.7329 57.7487L16.994 56.6519C15.9333 52.5184 15.3977 48.2677 15.4 44.0003C15.4 42.5949 15.4583 41.1753 15.5734 39.781L11.1881 39.4195Z" fill="#758091"/>
</svg>
