<svg width="128" height="128" viewBox="0 0 128 128" fill="none" xmlns="http://www.w3.org/2000/svg">
<g clip-path="url(#clip0_4313_2904)">
<path d="M64.0999 83.3C56.2799 83.3 49.1799 86.7 45.9999 92C45.8287 92.2255 45.7073 92.4847 45.6438 92.7606C45.5803 93.0365 45.576 93.3227 45.6314 93.6004C45.6867 93.878 45.8004 94.1408 45.9648 94.3712C46.1293 94.6017 46.3408 94.7946 46.5853 94.9372C46.8299 95.0798 47.102 95.1688 47.3835 95.1985C47.6651 95.2281 47.9497 95.1976 48.2186 95.109C48.4875 95.0204 48.7345 94.8757 48.9433 94.6846C49.1521 94.4934 49.318 94.2601 49.4299 94C51.8999 89.91 57.6599 87.27 64.0999 87.27C70.1699 87.27 75.7899 89.71 78.4199 93.48C78.563 93.7106 78.7516 93.9096 78.9741 94.065C79.1966 94.2204 79.4484 94.3289 79.7141 94.3839C79.9799 94.4388 80.2541 94.4391 80.52 94.3848C80.7859 94.3304 81.0379 94.2225 81.2607 94.0676C81.4836 93.9126 81.6726 93.714 81.8162 93.4837C81.9598 93.2535 82.0551 92.9964 82.0962 92.7281C82.1372 92.4598 82.1233 92.186 82.0552 91.9233C81.987 91.6606 81.8662 91.4145 81.6999 91.2C78.2999 86.34 71.5499 83.3 64.0999 83.3Z" fill="#758091"/>
<path d="M48.5897 70.41C48.9723 70.7377 49.4645 70.9089 49.9678 70.8894C50.4712 70.87 50.9486 70.6613 51.3048 70.3051C51.661 69.9489 51.8697 69.4715 51.8891 68.9681C51.9086 68.4648 51.7374 67.9726 51.4097 67.59L44.8297 61L51.4097 54.41C51.7374 54.0274 51.9086 53.5352 51.8891 53.0319C51.8697 52.5285 51.661 52.0511 51.3048 51.6949C50.9486 51.3387 50.4712 51.13 49.9678 51.1106C49.4645 51.0911 48.9723 51.2623 48.5897 51.59L41.9997 58.17L35.4097 51.59C35.0271 51.2623 34.535 51.0911 34.0316 51.1106C33.5283 51.13 33.0508 51.3387 32.6946 51.6949C32.3384 52.0511 32.1297 52.5285 32.1103 53.0319C32.0908 53.5352 32.2621 54.0274 32.5897 54.41L39.1697 61L32.5897 67.59C32.3803 67.7693 32.2103 67.9899 32.0903 68.2381C31.9702 68.4862 31.9028 68.7565 31.8921 69.0319C31.8815 69.3073 31.9279 69.582 32.0284 69.8386C32.129 70.0953 32.2815 70.3284 32.4764 70.5233C32.6713 70.7182 32.9044 70.8707 33.1611 70.9713C33.4177 71.0718 33.6924 71.1182 33.9678 71.1076C34.2433 71.097 34.5135 71.0295 34.7617 70.9095C35.0098 70.7894 35.2304 70.6194 35.4097 70.41L41.9997 63.83L48.5897 70.41Z" fill="#758091"/>
<path d="M95.4097 51.59C95.035 51.2175 94.5281 51.0084 93.9997 51.0084C93.4713 51.0084 92.9644 51.2175 92.5897 51.59L85.9997 58.17L79.4097 51.59C79.0271 51.2623 78.535 51.0911 78.0316 51.1106C77.5283 51.13 77.0508 51.3387 76.6946 51.6949C76.3384 52.0511 76.1297 52.5285 76.1103 53.0319C76.0909 53.5352 76.2621 54.0274 76.5897 54.41L83.1697 61L76.5897 67.59C76.3803 67.7693 76.2103 67.9899 76.0903 68.2381C75.9702 68.4862 75.9028 68.7565 75.8921 69.0319C75.8815 69.3073 75.9279 69.582 76.0284 69.8386C76.129 70.0953 76.2815 70.3284 76.4764 70.5233C76.6713 70.7182 76.9044 70.8707 77.1611 70.9713C77.4177 71.0718 77.6924 71.1182 77.9678 71.1076C78.2433 71.097 78.5135 71.0295 78.7617 70.9095C79.0098 70.7894 79.2304 70.6194 79.4097 70.41L85.9997 63.83L92.5897 70.41C92.9723 70.7377 93.4645 70.9089 93.9678 70.8894C94.4712 70.87 94.9487 70.6613 95.3048 70.3051C95.661 69.9489 95.8697 69.4715 95.8891 68.9681C95.9086 68.4648 95.7374 67.9726 95.4097 67.59L88.8297 61L95.4097 54.41C95.7822 54.0353 95.9913 53.5284 95.9913 53C95.9913 52.4716 95.7822 51.9647 95.4097 51.59Z" fill="#758091"/>
<path d="M120 24H53.0002C52.5958 24.0424 52.1871 23.994 51.8038 23.8582C51.4205 23.7225 51.0724 23.5028 50.7849 23.2153C50.4974 22.9278 50.2777 22.5797 50.142 22.1964C50.0062 21.8131 49.9578 21.4044 50.0002 21V15C50.0429 14.0694 49.8911 13.1401 49.5544 12.2715C49.2177 11.4029 48.7036 10.6141 48.0449 9.95535C47.3861 9.29662 46.5973 8.78251 45.7287 8.44583C44.8601 8.10915 43.9308 7.95731 43.0002 8H7.0002C6.06961 7.95731 5.14034 8.10915 4.27173 8.44583C3.40312 8.78251 2.61427 9.29662 1.95555 9.95535C1.29683 10.6141 0.782711 11.4029 0.446033 12.2715C0.109354 13.1401 -0.0424875 14.0694 0.000203448 15V112.25C0.0111915 114.423 0.872719 116.505 2.4002 118.05C3.49658 119.156 4.95673 119.828 6.5102 119.94C6.67043 119.98 6.83502 120 7.0002 120H121C125.32 120 128 115.85 128 112V32C128 26.92 125.08 24 120 24ZM124 112C124 113.93 122.79 116 121 116H7.4302C7.28714 115.988 7.14327 115.988 7.0002 116C6.67083 116.004 6.3442 115.94 6.04116 115.81C5.73813 115.681 5.46534 115.49 5.2402 115.25C4.46176 114.446 4.02768 113.369 4.0302 112.25V15C3.98777 14.5956 4.0362 14.1869 4.17196 13.8036C4.30772 13.4203 4.52738 13.0722 4.81489 12.7847C5.10241 12.4972 5.45052 12.2775 5.83379 12.1418C6.21706 12.006 6.62582 11.9576 7.0302 12H43.0002C43.4046 11.9576 43.8133 12.006 44.1966 12.1418C44.5799 12.2775 44.928 12.4972 45.2155 12.7847C45.503 13.0722 45.7227 13.4203 45.8584 13.8036C45.9942 14.1869 46.0426 14.5956 46.0002 15V21C45.9575 21.9306 46.1094 22.8599 46.446 23.7285C46.7827 24.5971 47.2968 25.3859 47.9555 26.0447C48.6143 26.7034 49.4031 27.2175 50.2717 27.5542C51.1403 27.8909 52.0696 28.0427 53.0002 28H120C122.88 28 124 29.12 124 32V112Z" fill="#758091"/>
</g>
<defs>
<clipPath id="clip0_4313_2904">
<rect width="128" height="128" fill="white"/>
</clipPath>
</defs>
</svg>
