<svg width="7" height="10" viewBox="0 0 7 10" fill="none" xmlns="http://www.w3.org/2000/svg">
<path opacity="0.4" d="M6.87006 3.24304L3.80759 0.131929C3.72109 0.0439519 3.61857 0 3.5 0C3.38143 0 3.27893 0.0439519 3.19233 0.131929L0.129866 3.24304C0.0432648 3.33094 0 3.43514 0 3.55549C0 3.67584 0.0432648 3.78007 0.129866 3.86797C0.216564 3.95595 0.319063 4 0.437533 4H6.56244C6.68094 4 6.78351 3.95595 6.87006 3.86797C6.95657 3.78009 7 3.67587 7 3.55549C7 3.43512 6.95657 3.33094 6.87006 3.24304Z" fill="#E9EDF0"/>
<path d="M6.87006 6.27642L3.80759 9.33888C3.72109 9.42549 3.61857 9.46875 3.5 9.46875C3.38143 9.46875 3.27893 9.42549 3.19233 9.33888L0.129866 6.27642C0.0432648 6.18989 0 6.08732 0 5.96885C0 5.85038 0.0432648 5.74778 0.129866 5.66125C0.216564 5.57465 0.319063 5.53129 0.437533 5.53129H6.56244C6.68094 5.53129 6.78351 5.57465 6.87006 5.66125C6.95657 5.74776 7 5.85035 7 5.96885C7 6.08734 6.95657 6.18989 6.87006 6.27642Z" fill="white"/>
</svg>
