<svg width="16" height="16" viewBox="0 0 16 16" fill="none" xmlns="http://www.w3.org/2000/svg">
<g clip-path="url(#clip0_1861_2302)">
<path d="M15.7757 8.73931C15.9277 8.96802 16.0002 9.22414 16.0002 9.47747C16.0002 9.93488 15.7638 10.3821 15.3335 10.6372C14.9161 10.885 14.6668 11.3261 14.6668 11.7957C14.6668 11.8534 14.6704 11.9115 14.6782 11.9696C14.6859 12.0288 14.6898 12.0874 14.6898 12.1453C14.6898 12.8324 14.1563 13.4241 13.4388 13.4916C13.1661 13.5173 12.9141 13.6206 12.7085 13.781C12.503 13.9414 12.3443 14.1592 12.2582 14.4138C12.0651 14.9839 11.5238 15.3423 10.945 15.3423C10.7863 15.3423 10.6248 15.3154 10.4667 15.2583C10.3109 15.202 10.1489 15.1748 9.98842 15.1748C9.62031 15.1748 9.25972 15.3187 8.99427 15.5875C8.72259 15.8627 8.36148 16.0003 8.00037 16.0003C7.63927 16.0003 7.27816 15.8627 7.00648 15.5875C6.74103 15.319 6.38044 15.1748 6.01233 15.1748C5.85187 15.1748 5.69011 15.2022 5.53405 15.2583C5.37618 15.3152 5.21442 15.3423 5.05577 15.3423C4.47716 15.3423 3.93563 14.9839 3.7425 14.4138C3.65644 14.1592 3.49753 13.9414 3.29222 13.781C3.08665 13.6206 2.83468 13.5173 2.56197 13.4916C1.84441 13.4241 1.31092 12.8324 1.31092 12.1453C1.31092 12.0874 1.31455 12.0288 1.32258 11.9696C1.33036 11.9115 1.33399 11.8534 1.33399 11.7957C1.33399 11.3261 1.08461 10.8847 0.667246 10.6372C0.236663 10.3821 0.00050354 9.93462 0.00050354 9.47747C0.00050354 9.22414 0.072829 8.96802 0.224998 8.73931C0.374574 8.51467 0.449232 8.25728 0.449232 7.99989C0.449232 7.7425 0.374315 7.48537 0.224998 7.26047C0.0730882 7.03176 0.00050354 6.77564 0.00050354 6.52232C0.00050354 6.06491 0.236922 5.61765 0.667246 5.36254C1.08461 5.1148 1.33399 4.67363 1.33399 4.20404C1.33399 4.14642 1.33036 4.08829 1.32258 4.03016C1.3148 3.97102 1.31092 3.91238 1.31092 3.85451C1.31092 3.16738 1.84441 2.57569 2.56197 2.50817C2.83468 2.48253 3.08665 2.37922 3.29222 2.21879C3.49779 2.05837 3.65644 1.84058 3.7425 1.58598C3.93563 1.01587 4.47691 0.657453 5.05577 0.657453C5.21442 0.657453 5.37592 0.684359 5.53405 0.741472C5.68985 0.797824 5.85187 0.824984 6.01233 0.824984C6.38044 0.824984 6.74103 0.681059 7.00648 0.412248C7.27816 0.13709 7.63927 -0.000488281 8.00037 -0.000488281C8.36148 -0.000488281 8.72259 0.13709 8.99427 0.412248C9.37534 0.797824 9.95264 0.926772 10.4667 0.741218C10.6246 0.684359 10.7863 0.657199 10.945 0.657199C11.5236 0.657199 12.0651 1.01561 12.2582 1.58573C12.3443 1.84033 12.5032 2.05812 12.7085 2.21854C12.9141 2.37896 13.1661 2.48227 13.4388 2.50791C14.1563 2.57543 14.6898 3.16712 14.6898 3.85425C14.6898 3.91213 14.6862 3.97076 14.6782 4.02991C14.6704 4.08804 14.6668 4.14616 14.6668 4.20379C14.6668 4.67338 14.9161 5.1148 15.3335 5.36229C15.7641 5.61739 16.0002 6.06491 16.0002 6.52206C16.0002 6.77539 15.9279 7.03151 15.7757 7.26022C15.6262 7.48486 15.5515 7.74225 15.5515 7.99964C15.5515 8.25703 15.6264 8.51416 15.7757 8.73906V8.73931Z" fill="#30E0A1"/>
<path d="M8.00013 14.3321C11.5715 14.3321 14.4666 11.4972 14.4666 8.00013C14.4666 4.50311 11.5715 1.66821 8.00013 1.66821C4.42877 1.66821 1.53361 4.50311 1.53361 8.00013C1.53361 11.4972 4.42877 14.3321 8.00013 14.3321Z" fill="#30E0A1"/>
<path d="M6.73741 11.6595L4.04012 9.01857L5.1981 7.88469L6.61117 9.26834L10.5012 4.57874L11.7722 5.58976L6.73741 11.6595Z" fill="black"/>
</g>
<defs>
<clipPath id="clip0_1861_2302">
<rect width="16" height="16" fill="white"/>
</clipPath>
</defs>
</svg>
