<svg width="24" height="22" viewBox="0 0 24 22" fill="none" xmlns="http://www.w3.org/2000/svg">
<path d="M24 17.4285V19.5714C24 20.7534 23.0383 21.7142 21.8571 21.7142H3.42857C1.53771 21.7142 0 20.1765 0 18.2856C0 18.2856 0 3.72707 0 3.71422C0 1.82336 1.53771 0.285645 3.42857 0.285645H19.2857C19.9963 0.285645 20.5714 0.861645 20.5714 1.57136C20.5714 2.28107 19.9963 2.85707 19.2857 2.85707H3.42857C2.95629 2.85707 2.57143 3.24107 2.57143 3.71422C2.57143 4.18736 2.95629 4.57136 3.42857 4.57136H21.8571C23.0383 4.57136 24 5.53222 24 6.71422V8.85707H19.7143C17.3511 8.85707 15.4286 10.7796 15.4286 13.1428C15.4286 15.5059 17.3511 17.4285 19.7143 17.4285H24Z" fill="url(#paint0_linear_9636_29622)"/>
<path d="M23.9997 10.5713V15.7141H19.714C18.2937 15.7141 17.1426 14.563 17.1426 13.1427C17.1426 11.7224 18.2937 10.5713 19.714 10.5713H23.9997Z" fill="url(#paint1_linear_9636_29622)"/>
<defs>
<linearGradient id="paint0_linear_9636_29622" x1="2.45917" y1="0.285645" x2="7.00978" y2="24.6863" gradientUnits="userSpaceOnUse">
<stop stop-color="#22E0FA"/>
<stop offset="1" stop-color="#8210AA"/>
</linearGradient>
<linearGradient id="paint1_linear_9636_29622" x1="17.8452" y1="10.5713" x2="18.7718" y2="16.486" gradientUnits="userSpaceOnUse">
<stop stop-color="#22E0FA"/>
<stop offset="1" stop-color="#8210AA"/>
</linearGradient>
</defs>
</svg>
