<svg width="36" height="35" viewBox="0 0 36 35" fill="none" xmlns="http://www.w3.org/2000/svg">
<path d="M10.4046 6.15271C10.2837 5.81399 10.0296 5.54779 9.67876 5.42683L9.43678 5.34214H7.11389C6.36379 5.34214 5.67417 5.70507 5.25068 6.33422L0.314572 13.7021C0.157286 13.9441 0.0483694 14.1982 0 14.4522H8.69879L10.7555 7.14479L10.4046 6.15271ZM4.68209 12.5891C4.45222 12.9884 4.01669 13.1698 3.71423 12.9884C3.41177 12.819 3.35122 12.3471 3.58109 11.9479C3.81097 11.5486 4.24657 11.3671 4.54903 11.5486C4.85149 11.718 4.91197 12.1898 4.68209 12.5891ZM7.16226 9.89116C6.65415 10.6775 5.81935 11.0526 5.29913 10.7138C4.7789 10.375 4.7789 9.46767 5.29913 8.6692C5.80724 7.88277 6.64204 7.50772 7.16226 7.84651C7.68248 8.18524 7.68248 9.09262 7.16226 9.89116ZM8.72293 15.6621L14.99 34.8744C14.7843 34.7292 14.5907 34.5599 14.4334 34.3542L0.399195 16.3517C0.241982 16.1339 0.120954 15.9041 0.0483637 15.6621H8.72293ZM22.4063 15.6621L16.224 34.6204H16.1756L9.99333 15.6621H22.4063ZM22.4305 14.4522H9.957L11.7234 8.16109C11.9048 8.23368 12.0984 8.26994 12.3041 8.26994C12.9937 8.26994 13.6108 7.83441 13.8406 7.18112L14.2036 6.15271C14.3245 5.81399 14.5907 5.54779 14.9294 5.42683L15.1714 5.34214H19.8656L22.4305 14.4522ZM23.6767 15.6621H32.3634C32.2908 15.9041 32.1697 16.1339 32.0004 16.3517L17.9783 34.3542C17.821 34.5599 17.6274 34.7292 17.4217 34.8624L23.6767 15.6621ZM23.6887 14.4522L21.136 5.34214H25.2737C26.0238 5.34214 26.7133 5.70507 27.1489 6.33422L32.0971 13.7021C32.2544 13.9441 32.3512 14.1982 32.4117 14.4522H23.6887ZM4.88039 27.1384L5.24111 28.1656C5.4822 28.8521 6.02206 29.392 6.70859 29.6331L7.73579 29.9938C8.10891 30.1248 8.10891 30.6525 7.73579 30.7835L6.70859 31.1442C6.02206 31.3853 5.4822 31.9252 5.24111 32.6117L4.88039 33.6389C4.74936 34.012 4.22169 34.012 4.09066 33.6389L3.72994 32.6117C3.48886 31.9252 2.94899 31.3853 2.26247 31.1442L1.23526 30.7835C0.862144 30.6525 0.862144 30.1248 1.23526 29.9938L2.26247 29.6331C2.94899 29.392 3.48886 28.8521 3.72994 28.1656L4.09066 27.1384C4.2217 26.7653 4.74937 26.7653 4.88039 27.1384ZM12.7007 0.279838L13.0614 1.30704C13.3025 1.99357 13.8424 2.53343 14.5289 2.77452L15.5561 3.13524C15.9292 3.26627 15.9292 3.79394 15.5561 3.92497L14.5289 4.28569C13.8424 4.52677 13.3025 5.06664 13.0614 5.75317L12.7007 6.78037C12.5697 7.15349 12.042 7.15349 11.911 6.78037L11.5503 5.75317C11.3092 5.06664 10.7693 4.52677 10.0828 4.28569L9.05557 3.92497C8.68245 3.79394 8.68245 3.26627 9.05557 3.13524L10.0828 2.77452C10.7693 2.53343 11.3092 1.99357 11.5503 1.30704L11.911 0.279838C12.042 -0.0932794 12.5697 -0.0932794 12.7007 0.279838ZM32.8648 19.692L33.2255 20.7192C33.4666 21.4057 34.0064 21.9456 34.693 22.1866L35.7202 22.5474C36.0933 22.6784 36.0933 23.2061 35.7202 23.3371L34.693 23.6978C34.0064 23.9389 33.4666 24.4788 33.2255 25.1653L32.8648 26.1925C32.7337 26.5656 32.2061 26.5656 32.075 26.1925L31.7143 25.1653C31.4732 24.4788 30.9334 23.9389 30.2468 23.6978L29.2196 23.3371C28.8465 23.2061 28.8465 22.6784 29.2196 22.5474L30.2468 22.1866C30.9334 21.9455 31.4732 21.4057 31.7143 20.7192L32.075 19.6919C32.2061 19.3188 32.7337 19.3188 32.8648 19.692Z" fill="url(#paint0_linear_9722_558)"/>
<defs>
<linearGradient id="paint0_linear_9722_558" x1="-4.10363" y1="17.4372" x2="29.7407" y2="42.507" gradientUnits="userSpaceOnUse">
<stop stop-color="#22E0FA"/>
<stop offset="1" stop-color="#8210AA"/>
</linearGradient>
</defs>
</svg>
