<svg width="30" height="30" viewBox="0 0 30 30" fill="none" xmlns="http://www.w3.org/2000/svg">
<path d="M7.99091 15.9818V27.9682C7.99091 28.3214 7.85059 28.6602 7.60083 28.9099C7.35106 29.1597 7.01231 29.3 6.65909 29.3H1.33182C0.978598 29.3 0.639845 29.1597 0.39008 28.9099C0.140316 28.6602 0 28.3214 0 27.9682V15.9818C0 15.6286 0.140316 15.2898 0.39008 15.0401C0.639845 14.7903 0.978598 14.65 1.33182 14.65H6.65909C7.01231 14.65 7.35106 14.7903 7.60083 15.0401C7.85059 15.2898 7.99091 15.6286 7.99091 15.9818ZM17.3136 0H11.9864C11.6331 0 11.2944 0.140316 11.0446 0.39008C10.7949 0.639845 10.6545 0.978598 10.6545 1.33182V27.9682C10.6545 28.3214 10.7949 28.6602 11.0446 28.9099C11.2944 29.1597 11.6331 29.3 11.9864 29.3H17.3136C17.6669 29.3 18.0056 29.1597 18.2554 28.9099C18.5051 28.6602 18.6455 28.3214 18.6455 27.9682V1.33182C18.6455 0.978598 18.5051 0.639845 18.2554 0.39008C18.0056 0.140316 17.6669 0 17.3136 0ZM27.9682 6.65909H22.6409C22.2877 6.65909 21.9489 6.79941 21.6992 7.04917C21.4494 7.29894 21.3091 7.63769 21.3091 7.99091V27.9682C21.3091 28.3214 21.4494 28.6602 21.6992 28.9099C21.9489 29.1597 22.2877 29.3 22.6409 29.3H27.9682C28.3214 29.3 28.6602 29.1597 28.9099 28.9099C29.1597 28.6602 29.3 28.3214 29.3 27.9682V7.99091C29.3 7.63769 29.1597 7.29894 28.9099 7.04917C28.6602 6.79941 28.3214 6.65909 27.9682 6.65909Z" fill="url(#paint0_linear_1660_1710)"/>
<defs>
<linearGradient id="paint0_linear_1660_1710" x1="14.65" y1="0" x2="14.65" y2="29.3" gradientUnits="userSpaceOnUse">
<stop stop-color="#F05722"/>
<stop offset="1" stop-color="#B03E17"/>
</linearGradient>
</defs>
</svg>
