<svg width="20" height="30" viewBox="0 0 20 30" fill="none" xmlns="http://www.w3.org/2000/svg">
<path fill-rule="evenodd" clip-rule="evenodd" d="M12.3168 29.2969C13.8085 27.0908 13.946 24.7082 12.7291 22.1488C12.3908 23.5219 11.7718 24.3552 10.8721 24.6489C11.7076 22.263 11.0095 19.6854 8.77782 16.916C8.72965 19.7763 8.04229 21.8599 6.71567 23.1668C4.88813 24.9655 4.90963 26.9954 6.78012 29.2565C-0.984604 25.1244 -2.08007 19.5823 3.4936 12.6306C3.8393 14.31 4.67702 15.3411 6.00686 15.7238C4.55731 9.57258 6.08245 4.33131 10.5822 0C10.6099 9.61213 13.5574 10.4665 17.2842 14.7571C21.3079 19.9061 18.9433 25.8482 12.3168 29.2969Z" fill="url(#paint0_linear_1660_1057)"/>
<defs>
<linearGradient id="paint0_linear_1660_1057" x1="9.62861" y1="0" x2="9.62861" y2="29.2969" gradientUnits="userSpaceOnUse">
<stop stop-color="#F05722"/>
<stop offset="1" stop-color="#B03E17"/>
</linearGradient>
</defs>
</svg>
