<svg width="32" height="26" fill="none"><path fill="#DADBE1" d="M1.758.167a1.758 1.758 0 0 0 0 3.517H13.48a1.758 1.758 0 0 0 0-3.517H1.758ZM.67 24.001c0 .986 1.022 1.786 2.282 1.786h26.246c1.26 0 2.283-.8 2.283-1.786v-4.465c0-.987-1.022-1.787-2.283-1.787H2.952c-1.26 0-2.282.8-2.282 1.787V24Z"/><path fill="#DADBE1" fill-rule="evenodd" d="M28.897 7.033 27.05 9.966c-1.051 1.668-3.483 1.668-4.534 0l-1.848-2.933H2.952c-1.26 0-2.282.8-2.282 1.786v4.465c0 .987 1.022 1.786 2.282 1.786h26.246c1.26 0 2.283-.8 2.283-1.786V8.82c0-.987-1.022-1.786-2.283-1.786h-.3Zm-1.583 0-1.398 2.219a1.34 1.34 0 0 1-2.267 0l-1.397-2.22h5.062Z" clip-rule="evenodd"/><path fill="#F05623" d="M23.65 9.252a1.34 1.34 0 0 0 2.266 0l4.534-7.198A1.34 1.34 0 0 0 29.317 0h-9.068a1.34 1.34 0 0 0-1.134 2.054l4.534 7.198Z"/></svg>