<svg xmlns="http://www.w3.org/2000/svg" width="107" height="117" fill="none"><g fill="#758091" clip-path="url(#a)" filter="url(#b)"><path d="M32.927 25.186h-9.464V0h-10v25.186H4v56.806h9.463V100h10V81.992h9.464V25.186ZM103.001 17.94h-9.464V-2.246h-10V17.94h-9.463v36.806h9.463V100h10V54.746h9.464V17.94ZM68.461 63.529h-9.463V47h-10v16.529h-9.463v30.806h9.463v37.008h10V94.335h9.463V63.529Z"/><path d="M61 103h15v3H61zM14 103h15v3H14zM79 103h15v3H79zM32 103h15v3H32z"/></g><defs><clipPath id="a"><path fill="#fff" d="M4 0h100v109H4z"/></clipPath><filter id="b" width="108" height="117" x="0" y="0" color-interpolation-filters="sRGB" filterUnits="userSpaceOnUse"><feFlood flood-opacity="0" result="BackgroundImageFix"/><feColorMatrix in="SourceAlpha" result="hardAlpha" values="0 0 0 0 0 0 0 0 0 0 0 0 0 0 0 0 0 0 127 0"/><feOffset dy="4"/><feGaussianBlur stdDeviation="2"/><feComposite in2="hardAlpha" operator="out"/><feColorMatrix values="0 0 0 0 0 0 0 0 0 0 0 0 0 0 0 0 0 0 0.25 0"/><feBlend in2="BackgroundImageFix" result="effect1_dropShadow_5479_10244"/><feBlend in="SourceGraphic" in2="effect1_dropShadow_5479_10244" result="shape"/><feColorMatrix in="SourceAlpha" result="hardAlpha" values="0 0 0 0 0 0 0 0 0 0 0 0 0 0 0 0 0 0 127 0"/><feOffset dy="3"/><feGaussianBlur stdDeviation="1"/><feComposite in2="hardAlpha" k2="-1" k3="1" operator="arithmetic"/><feColorMatrix values="0 0 0 0 0 0 0 0 0 0 0 0 0 0 0 0 0 0 0.25 0"/><feBlend in2="shape" result="effect2_innerShadow_5479_10244"/></filter></defs></svg>