<svg width="27" height="27" viewBox="0 0 27 27" fill="none" xmlns="http://www.w3.org/2000/svg">
<path d="M14.9088 27C18.15 27 21.1938 25.5879 23.4793 23.0239C25.7495 20.4765 27 17.0945 27 13.5C27 10.5282 26.1522 7.70951 24.5488 5.34891C24.4702 5.23321 24.3489 5.15346 24.2115 5.12722C24.0741 5.10097 23.932 5.13037 23.8163 5.20895C23.7006 5.28753 23.6208 5.40885 23.5946 5.54623C23.5683 5.68361 23.5977 5.82578 23.6763 5.94148C25.1606 8.12664 25.9453 10.7403 25.9453 13.5C25.9453 20.3592 20.9988 25.9401 14.9174 25.9453C14.2831 25.9458 13.6503 25.8853 13.0275 25.7649C10.5044 25.2759 8.19295 23.7911 6.51847 21.5834C4.81235 19.3341 3.87279 16.4634 3.87279 13.5001C3.87279 10.5369 4.81235 7.66574 6.51847 5.41635C8.19295 3.20863 10.5042 1.72384 13.0274 1.23478C13.0306 1.2342 13.0338 1.23362 13.037 1.23298C13.654 1.11447 14.2808 1.0548 14.909 1.05479C17.6975 1.05479 20.3597 2.23104 22.4051 4.36689C22.5024 4.46559 22.6346 4.52204 22.7732 4.52403C22.9117 4.52602 23.0455 4.47339 23.1456 4.37752C23.2456 4.28165 23.3039 4.15025 23.3079 4.01173C23.3118 3.87321 23.2611 3.73871 23.1666 3.6373C20.9204 1.29173 17.9877 -3.93941e-07 14.9088 -5.28524e-07L12.0912 -6.51683e-07C8.84997 -7.93363e-07 5.80624 1.41207 3.52073 3.97618C1.25051 6.52299 -3.09506e-05 9.90532 -3.11077e-05 13.5C-0.00434614 15.2139 0.288831 16.9155 0.866448 18.529C0.88961 18.5946 0.925495 18.6549 0.972041 18.7065C1.01859 18.7581 1.07488 18.8 1.13767 18.8298C1.20046 18.8595 1.26853 18.8766 1.33794 18.88C1.40736 18.8834 1.47676 18.873 1.54215 18.8495C1.60755 18.826 1.66765 18.7898 1.719 18.7429C1.77035 18.6961 1.81193 18.6396 1.84137 18.5766C1.8708 18.5137 1.8875 18.4455 1.8905 18.3761C1.8935 18.3066 1.88275 18.2373 1.85886 18.172C1.32249 16.6729 1.05038 15.092 1.05466 13.4998C1.05466 7.61148 4.7004 2.6653 9.58002 1.37995C8.05507 2.22645 6.72545 3.38455 5.67767 4.7789C3.83329 7.21054 2.81762 10.3077 2.81762 13.5C2.81762 16.6923 3.83329 19.7891 5.67767 22.2207C6.72487 23.6142 8.05358 24.7717 9.57744 25.6181C8.53751 25.3431 7.54722 24.9065 6.64271 24.3243C5.03152 23.2904 3.66522 21.8032 2.69148 20.0233C2.65824 19.9626 2.61336 19.909 2.5594 19.8655C2.50544 19.8221 2.44346 19.7898 2.37699 19.7703C2.31053 19.7509 2.24088 19.7447 2.17203 19.7522C2.10318 19.7596 2.03647 19.7806 1.97572 19.8138C1.91496 19.847 1.86135 19.8919 1.81794 19.9459C1.77453 19.9998 1.74217 20.0618 1.72272 20.1283C1.70326 20.1948 1.69709 20.2644 1.70455 20.3333C1.71201 20.4021 1.73296 20.4688 1.7662 20.5296C2.82448 22.4638 4.31375 24.083 6.07313 25.2119C7.86617 26.3727 9.95524 26.9934 12.0912 26.9998C12.0912 26.9998 14.8682 27 14.9088 27Z" fill="#ADADAD"/>
<path d="M13.5269 23.1731C11.6626 22.8069 9.93527 21.6814 8.66268 20.0038C7.30013 18.2071 6.54977 15.8969 6.54977 13.4986C6.54977 11.7009 6.97223 9.93939 7.77158 8.4045C7.80387 8.34305 7.82371 8.27583 7.82997 8.20669C7.83622 8.13755 7.82877 8.06786 7.80802 8.00161C7.78728 7.93537 7.75366 7.87386 7.7091 7.82064C7.66453 7.76741 7.6099 7.72351 7.54833 7.69145C7.48675 7.65939 7.41946 7.6398 7.3503 7.6338C7.28114 7.62781 7.21147 7.63553 7.1453 7.65652C7.07913 7.67752 7.01776 7.71137 6.9647 7.75613C6.91165 7.8009 6.86795 7.8557 6.83612 7.91739C5.95883 9.60215 5.49508 11.5321 5.49508 13.4988C5.49508 16.1257 6.32154 18.6623 7.82236 20.6413C9.25299 22.5272 11.2089 23.7944 13.3345 24.2102L13.3562 24.214C13.8692 24.3126 14.3905 24.3624 14.9129 24.3626C17.38 24.3626 19.716 23.2604 21.4907 21.2593C21.788 20.9233 22.0642 20.5693 22.3177 20.1993C22.3569 20.1422 22.3844 20.0779 22.3988 20.0102C22.4131 19.9424 22.4139 19.8725 22.4012 19.8044C22.3885 19.7363 22.3625 19.6714 22.3248 19.6134C22.287 19.5553 22.2381 19.5053 22.181 19.4662C22.1239 19.427 22.0596 19.3995 21.9919 19.3851C21.9241 19.3708 21.8542 19.37 21.7861 19.3827C21.7181 19.3954 21.6531 19.4213 21.5951 19.4591C21.5371 19.4969 21.487 19.5458 21.4479 19.6029C21.219 19.9368 20.9697 20.2563 20.7015 20.5595C19.13 22.3317 17.0741 23.3077 14.9129 23.3077C14.4587 23.3076 14.0057 23.2645 13.5597 23.179C13.5495 23.177 13.5394 23.1752 13.5269 23.1731Z" fill="#ADADAD"/>
<path d="M23.3873 18.225C24.0131 16.7289 24.3317 15.1221 24.3241 13.5003C24.3241 10.5615 23.3154 7.80528 21.4839 5.73914C19.7095 3.73834 17.3734 2.63672 14.9062 2.63672C14.3837 2.63641 13.8624 2.68585 13.3493 2.78438C13.3463 2.78496 13.3431 2.78554 13.3397 2.78617C13.3344 2.78707 13.3291 2.78801 13.3238 2.78907C11.3272 3.17967 9.45508 4.34041 8.0523 6.05739C7.96381 6.1657 7.92197 6.30472 7.93598 6.44388C7.94999 6.58304 8.01871 6.71093 8.12702 6.79942C8.23533 6.88791 8.37435 6.92975 8.51351 6.91573C8.65267 6.90172 8.78056 6.833 8.86905 6.72469C10.1146 5.20004 11.7654 4.17076 13.5185 3.82578C13.5248 3.82467 13.5311 3.82351 13.5376 3.8223C13.5404 3.82177 13.5429 3.82124 13.5459 3.82077C13.9941 3.73445 14.4497 3.69113 14.9062 3.69141C17.0677 3.69141 19.1235 4.667 20.6947 6.43887C22.355 8.31184 23.2694 10.8197 23.2694 13.5004C23.2768 14.9815 22.9863 16.4489 22.4151 17.8154C22.3882 17.8793 22.3741 17.9478 22.3737 18.017C22.3733 18.0863 22.3865 18.155 22.4127 18.2191C22.4388 18.2833 22.4773 18.3417 22.526 18.3909C22.5746 18.4402 22.6326 18.4794 22.6964 18.5063C22.7602 18.5332 22.8287 18.5473 22.898 18.5477C22.9673 18.5481 23.0359 18.5349 23.1001 18.5087C23.1642 18.4826 23.2226 18.4441 23.2719 18.3954C23.3212 18.3468 23.3604 18.2889 23.3873 18.225Z" fill="#ADADAD"/>
<mask id="path-4-inside-1_2301_21152" fill="white">
<path fill-rule="evenodd" clip-rule="evenodd" d="M11.8407 10.9883H17.9525C19.6493 10.9883 20.2902 11.6754 20.2902 12.6817V13.7667C20.2902 14.7729 19.6493 15.4601 17.9525 15.4601H14.0878V15.4602H13.5266V17.9995H11.8407V15.4602H10.4023V14.1856H11.8407V10.9883ZM18.118 14.1855C18.4498 14.1855 18.6043 14.0359 18.6043 13.7768H18.6048V12.711C18.6048 12.4427 18.4389 12.2536 18.1084 12.2536H13.5266V14.1855H18.118Z"/>
</mask>
<path d="M11.8407 10.9883V10.8883H11.7407V10.9883H11.8407ZM14.0878 15.4601V15.3601H13.9878V15.4601H14.0878ZM14.0878 15.4602V15.5602H14.1878V15.4602H14.0878ZM13.5266 15.4602V15.3602H13.4266V15.4602H13.5266ZM13.5266 17.9995V18.0995H13.6266V17.9995H13.5266ZM11.8407 17.9995H11.7407V18.0995H11.8407V17.9995ZM11.8407 15.4602H11.9407V15.3602H11.8407V15.4602ZM10.4023 15.4602H10.3023V15.5602H10.4023V15.4602ZM10.4023 14.1856V14.0856H10.3023V14.1856H10.4023ZM11.8407 14.1856V14.2856H11.9407V14.1856H11.8407ZM18.6043 13.7768V13.6768H18.5043V13.7768H18.6043ZM18.6048 13.7768V13.8768H18.7048V13.7768H18.6048ZM13.5266 12.2536V12.1536H13.4266V12.2536H13.5266ZM13.5266 14.1855H13.4266V14.2855H13.5266V14.1855ZM17.9525 10.8883H11.8407V11.0883H17.9525V10.8883ZM20.3902 12.6817C20.3902 12.156 20.2217 11.7005 19.8201 11.3795C19.4227 11.0619 18.8119 10.8883 17.9525 10.8883V11.0883C18.7899 11.0883 19.348 11.2583 19.6952 11.5358C20.0383 11.81 20.1902 12.2011 20.1902 12.6817H20.3902ZM20.3902 13.7667V12.6817H20.1902V13.7667H20.3902ZM17.9525 15.5601C18.8119 15.5601 19.4227 15.3865 19.8201 15.0689C20.2217 14.7479 20.3902 14.2924 20.3902 13.7667H20.1902C20.1902 14.2472 20.0383 14.6384 19.6952 14.9126C19.348 15.1901 18.7899 15.3601 17.9525 15.3601V15.5601ZM14.0878 15.5601H17.9525V15.3601H14.0878V15.5601ZM13.9878 15.4601V15.4602H14.1878V15.4601H13.9878ZM14.0878 15.3602H13.5266V15.5602H14.0878V15.3602ZM13.6266 17.9995V15.4602H13.4266V17.9995H13.6266ZM11.8407 18.0995H13.5266V17.8995H11.8407V18.0995ZM11.7407 15.4602V17.9995H11.9407V15.4602H11.7407ZM11.8407 15.3602H10.4023V15.5602H11.8407V15.3602ZM10.5023 15.4602V14.1856H10.3023V15.4602H10.5023ZM10.4023 14.2856H11.8407V14.0856H10.4023V14.2856ZM11.7407 10.9883V14.1856H11.9407V10.9883H11.7407ZM18.5043 13.7768C18.5043 13.886 18.4725 13.9571 18.4199 14.0029C18.3649 14.0509 18.2708 14.0855 18.118 14.0855V14.2855C18.297 14.2855 18.4461 14.2454 18.5513 14.1537C18.6589 14.0599 18.7043 13.9266 18.7043 13.7768H18.5043ZM18.6048 13.6768H18.6043V13.8768H18.6048V13.6768ZM18.5048 12.711V13.7768H18.7048V12.711H18.5048ZM18.1084 12.3536C18.2547 12.3536 18.3511 12.3951 18.4107 12.4532C18.4701 12.5113 18.5048 12.5975 18.5048 12.711H18.7048C18.7048 12.5562 18.6565 12.4137 18.5504 12.3101C18.4443 12.2066 18.2926 12.1536 18.1084 12.1536V12.3536ZM13.5266 12.3536H18.1084V12.1536H13.5266V12.3536ZM13.6266 14.1855V12.2536H13.4266V14.1855H13.6266ZM18.118 14.0855H13.5266V14.2855H18.118V14.0855Z" fill="#ADADAD" mask="url(#path-4-inside-1_2301_21152)"/>
<path fill-rule="evenodd" clip-rule="evenodd" d="M11.4384 10H17.5502C19.247 10 19.8879 10.6872 19.8879 11.6934V12.7784C19.8879 13.7846 19.247 14.4718 17.5502 14.4718H13.6854V14.4719H13.1243V17.0113H11.4384V14.4719H10V13.1973H11.4384V10ZM17.7156 13.1973C18.0474 13.1973 18.202 13.0476 18.202 12.7885H18.2024V11.7227C18.2024 11.4544 18.0365 11.2653 17.7061 11.2653H13.1243V13.1973H17.7156Z" fill="#ADADAD"/>
</svg>
