<svg width="30" height="29" viewBox="0 0 30 29" fill="none" xmlns="http://www.w3.org/2000/svg">
<g clip-path="url(#clip0_1_1118)">
<path d="M6.99415 18.4336H2.43555C2.12272 18.4336 1.86914 18.6872 1.86914 19V28.4344C1.86914 28.7472 2.12272 29.0008 2.43555 29.0008H6.99415C7.30698 29.0008 7.56056 28.7472 7.56056 28.4344V19C7.56056 18.6872 7.30698 18.4336 6.99415 18.4336ZM6.42775 27.868H3.00195V19.5664H6.42775V27.868Z" fill="#ADADAD"/>
<path d="M13.6739 12.25H9.11523C8.80241 12.25 8.54883 12.5036 8.54883 12.8164V28.4328C8.54883 28.7456 8.80241 28.9992 9.11523 28.9992H13.6739C13.9867 28.9992 14.2403 28.7456 14.2403 28.4328V12.8164C14.2403 12.5036 13.9867 12.25 13.6739 12.25ZM13.1075 27.8664H9.68164V13.3828H13.1075V27.8664Z" fill="#ADADAD"/>
<path d="M27.0313 9.44531H22.4727C22.1598 9.44531 21.9062 9.69895 21.9062 10.0117V28.4331C21.9062 28.7459 22.1598 28.9995 22.4727 28.9995H27.0313C27.3441 28.9995 27.5977 28.7459 27.5977 28.4331V10.0117C27.5977 9.69889 27.3441 9.44531 27.0313 9.44531ZM26.4649 27.8667H23.0391V10.5781H26.4649V27.8667Z" fill="#ADADAD"/>
<path d="M20.3516 13.9336H15.793C15.4801 13.9336 15.2266 14.1872 15.2266 14.5V28.4333C15.2266 28.7461 15.4801 28.9997 15.793 28.9997H20.3516C20.6644 28.9997 20.918 28.7461 20.918 28.4333V14.5C20.918 14.1872 20.6643 13.9336 20.3516 13.9336ZM19.7852 27.8669H16.3594V15.0664H19.7852V27.8669Z" fill="#ADADAD"/>
<path d="M27.9918 1.3449C27.8655 1.20115 27.6751 1.13069 27.4856 1.15821L24.7887 1.54711C24.4791 1.59174 24.2643 1.87891 24.309 2.18856C24.3536 2.49822 24.6409 2.71345 24.9504 2.66831L25.7384 2.55469L18.5335 9.0231L11.6318 5.83259C11.4188 5.73421 11.1674 5.7772 10.9993 5.94066L3.23597 13.4905C3.01173 13.7086 3.00669 14.0672 3.22482 14.2915C3.33583 14.4057 3.48327 14.463 3.63093 14.463C3.77321 14.463 3.91566 14.4097 4.02577 14.3026L11.5099 7.02426L18.3967 10.2079C18.6021 10.3027 18.8443 10.2664 19.0128 10.1152L26.5152 3.37966L26.2894 4.18939C26.2053 4.49072 26.3815 4.80309 26.6828 4.88715C26.7337 4.90131 26.7849 4.90811 26.8353 4.90811C27.0832 4.90805 27.3107 4.74408 27.3806 4.49372L28.112 1.87098C28.1635 1.68656 28.1183 1.48871 27.9918 1.3449Z" fill="#ADADAD"/>
</g>
<defs>
<clipPath id="clip0_1_1118">
<rect width="29" height="29" fill="white" transform="translate(0.5)"/>
</clipPath>
</defs>
</svg>
