<svg width="29" height="24" viewBox="0 0 29 24" fill="none" xmlns="http://www.w3.org/2000/svg">
<path d="M28.3849 7.34083L24.569 1.44818C24.2733 0.991464 23.7718 0.71875 23.2277 0.71875H6.39165C5.84834 0.71875 5.34737 0.99078 5.0515 1.44633L1.22377 7.33973C0.832614 7.94188 0.893035 8.73694 1.37071 9.27306L13.6098 23.0136C13.9127 23.3537 14.3476 23.5487 14.803 23.5487C14.8029 23.5487 14.8031 23.5487 14.803 23.5487C15.2583 23.5487 15.6934 23.3537 15.9963 23.0137L28.2368 9.2723C28.7138 8.7368 28.7747 7.94257 28.3849 7.34083ZM22.4547 2.08876L19.2455 7.05119L16.0345 2.08876H22.4547ZM17.9865 7.62745H11.6195L14.803 2.70756L17.9865 7.62745ZM13.5715 2.0889L10.3693 7.0377L7.16814 2.0889H13.5715ZM5.90143 2.65303L9.11907 7.62745H2.67058L5.90143 2.65303ZM2.95994 8.99753H9.85453L13.5 20.8306L2.95994 8.99753ZM14.803 20.4064L11.2881 8.99753H18.3179L14.803 20.4064ZM16.1059 20.831L19.7515 8.9976H26.6467L16.1059 20.831ZM20.5046 7.62745L23.7193 2.65646L26.9382 7.62745H20.5046Z" fill="#ADADAD"/>
</svg>
