<svg width="28" height="27" viewBox="0 0 28 27" fill="none" xmlns="http://www.w3.org/2000/svg">
<path d="M19.6093 26.9967H8.38902C7.12014 27.0438 5.88392 26.5883 4.94896 25.7291C4.014 24.87 3.45585 23.6766 3.39578 22.4082V16.393C3.39578 16.1374 3.49734 15.8922 3.67811 15.7114C3.85889 15.5306 4.10407 15.4291 4.35973 15.4291C4.61538 15.4291 4.86056 15.5306 5.04134 15.7114C5.22211 15.8922 5.32367 16.1374 5.32367 16.393V22.4082C5.38292 23.1653 5.73762 23.8688 6.31117 24.3666C6.88472 24.8644 7.63108 25.1166 8.38902 25.0687H19.6093C20.3673 25.1166 21.1136 24.8644 21.6872 24.3666C22.2607 23.8688 22.6154 23.1653 22.6747 22.4082V16.393C22.6747 16.1374 22.7762 15.8922 22.957 15.7114C23.1378 15.5306 23.383 15.4291 23.6386 15.4291C23.8943 15.4291 24.1395 15.5306 24.3202 15.7114C24.501 15.8922 24.6026 16.1374 24.6026 16.393V22.4082C24.5425 23.6766 23.9844 24.87 23.0494 25.7291C22.1144 26.5883 20.8782 27.0438 19.6093 26.9967ZM27.2149 14.1855C27.3052 14.0959 27.3769 13.9893 27.4259 13.8719C27.4748 13.7544 27.5 13.6284 27.5 13.5011C27.5 13.3739 27.4748 13.2479 27.4259 13.1304C27.3769 13.0129 27.3052 12.9063 27.2149 12.8167L14.6836 0.28514C14.594 0.194789 14.4874 0.123075 14.3699 0.0741358C14.2524 0.0251964 14.1264 0 13.9992 0C13.8719 0 13.7459 0.0251964 13.6285 0.0741358C13.511 0.123075 13.4044 0.194789 13.3148 0.28514L0.783488 12.8167C0.601974 12.9982 0.5 13.2444 0.5 13.5011C0.5 13.7578 0.601974 14.004 0.783488 14.1855C0.965003 14.3671 1.21119 14.469 1.46789 14.469C1.72459 14.469 1.97078 14.3671 2.15229 14.1855L13.9992 2.32875L25.8461 14.1855C25.9357 14.2759 26.0423 14.3476 26.1598 14.3966C26.2772 14.4455 26.4032 14.4707 26.5305 14.4707C26.6577 14.4707 26.7837 14.4455 26.9012 14.3966C27.0186 14.3476 27.1253 14.2759 27.2149 14.1855Z" fill="#ADADAD"/>
</svg>
