<svg width="26" height="26" viewBox="0 0 26 30" fill="none" xmlns="http://www.w3.org/2000/svg">
<path d="M0.751915 1.85199H4.04477C4.03283 1.48727 4.02617 1.12039 4.02617 0.751758C4.02617 0.336529 4.3629 0 4.77793 0H20.8824C21.2974 0 21.6341 0.336529 21.6341 0.751758C21.6341 1.12039 21.6275 1.48727 21.6155 1.85199H24.9084C25.3236 1.85199 25.6602 2.18852 25.6602 2.60374C25.6602 5.97217 24.7798 9.15011 23.1813 11.5524C21.6013 13.9273 19.4965 15.2895 17.2228 15.422C16.7074 15.9829 16.1626 16.4402 15.595 16.7891V20.1303H16.8562C18.3808 20.1303 19.621 21.3707 19.621 22.8951V24.1563H19.6745C20.0897 24.1563 20.4262 24.493 20.4262 24.908C20.4262 25.3233 20.0897 25.6598 19.6745 25.6598H5.98583C5.5706 25.6598 5.23407 25.3233 5.23407 24.908C5.23407 24.493 5.5706 24.1563 5.98583 24.1563H6.03928V22.8951C6.03928 21.3707 7.27948 20.1303 8.80414 20.1303H10.0653V16.7891C9.49776 16.4404 8.95273 15.9829 8.43727 15.422C6.16379 15.2895 4.05906 13.9273 2.4788 11.5524C0.880339 9.15011 0.000156403 5.97217 0.000156403 2.60374C0.000156403 2.18852 0.336685 1.85199 0.751915 1.85199ZM21.9296 10.7196C23.2481 8.73821 24.0227 6.1466 24.1408 3.3555H21.5316C21.2604 6.78657 20.455 9.95805 19.1962 12.4755C18.9957 12.8764 18.7861 13.2552 18.5686 13.6119C19.819 13.1397 20.9762 12.1526 21.9296 10.7196ZM7.54279 22.8951V24.1565H18.1175V22.8951C18.1175 22.1998 17.5517 21.6338 16.8562 21.6338H8.80414C8.10857 21.6338 7.54279 22.1998 7.54279 22.8951ZM11.5688 20.1303H14.0915V17.4423C13.6782 17.5512 13.2571 17.6078 12.8302 17.6078C12.4032 17.6078 11.9821 17.5512 11.5688 17.4423V20.1303ZM11.1033 15.6538C11.1371 15.6677 11.1696 15.6845 11.2008 15.7031C11.7321 15.9674 12.2781 16.1043 12.8302 16.1043C13.382 16.1043 13.9278 15.9674 14.459 15.7035C14.4905 15.6845 14.5232 15.6677 14.5574 15.6534C15.1469 15.3417 15.7172 14.8711 16.2565 14.2527C16.2849 14.2121 16.3168 14.1747 16.3523 14.1407C16.8877 13.505 17.3914 12.7231 17.8515 11.803C19.233 9.04008 20.031 5.40718 20.1218 1.50352H5.5385C5.62953 5.40718 6.42749 9.04028 7.80885 11.803C8.26891 12.7231 8.77262 13.505 9.30786 14.1407C9.34349 14.1747 9.37579 14.2123 9.40398 14.2529C9.94333 14.8715 10.5138 15.3419 11.1033 15.6538ZM3.73075 10.7196C4.68416 12.1526 5.84135 13.1397 7.09174 13.6119C6.87424 13.2552 6.66457 12.8764 6.4641 12.4755C5.2053 9.95805 4.40009 6.78657 4.12876 3.3555H1.51953C1.63758 6.1466 2.41224 8.73821 3.73075 10.7196Z" fill="#ADADAD"/>
</svg>
