<svg width="30" height="30" viewBox="0 0 30 30" fill="none" xmlns="http://www.w3.org/2000/svg">
<path d="M27.7715 15.901H27.1953V11.8678C27.1953 10.2778 26.0788 8.94458 24.5888 8.60855L21.9664 4.06636C21.5821 3.40071 20.9615 2.9245 20.219 2.72555C19.6948 2.58514 19.1542 2.59545 18.6473 2.74848L16.7404 0.841528C15.6183 -0.280452 13.7927 -0.280567 12.6707 0.841528L4.98625 8.52605H3.3418C1.49914 8.52605 0 10.0252 0 11.8678V26.1569C0 27.9996 1.49914 29.4987 3.3418 29.4987H11.0049C11.323 29.4987 11.5811 29.2407 11.5811 28.9225C11.5811 28.6044 11.323 28.3464 11.0049 28.3464H3.3418C2.13454 28.3464 1.15234 27.3642 1.15234 26.1569V11.8678C1.15234 10.6606 2.13454 9.67839 3.3418 9.67839H23.8535C25.0608 9.67839 26.043 10.6606 26.043 11.8678V15.901H21.7793C20.0637 15.901 18.668 17.2968 18.668 19.0124C18.668 20.7279 20.0637 22.1237 21.7793 22.1237H26.043V26.1569C26.043 27.3642 25.0608 28.3464 23.8535 28.3464H16.1904C15.8723 28.3464 15.6143 28.6044 15.6143 28.9225C15.6143 29.2407 15.8723 29.4987 16.1904 29.4987H23.8535C25.6962 29.4987 27.1953 27.9996 27.1953 26.1569V22.1237H27.7715C28.7246 22.1237 29.5 21.3483 29.5 20.3952V17.6296C29.5 16.6765 28.7246 15.901 27.7715 15.901ZM19.9208 3.83866C20.3659 3.95793 20.738 4.24342 20.9685 4.64253L23.2106 8.52605H10.7913L18.6116 4.01099C19.0106 3.78064 19.4755 3.71933 19.9208 3.83866ZM13.4855 1.65641C13.8114 1.33052 14.2447 1.15105 14.7055 1.15105C15.1664 1.15105 15.5997 1.33052 15.9256 1.65641L17.5579 3.28876L8.48667 8.52605H6.61595L13.4855 1.65641ZM28.3477 20.3952C28.3477 20.7129 28.0892 20.9714 27.7715 20.9714H21.7793C20.6991 20.9714 19.8203 20.0926 19.8203 19.0124C19.8203 17.9322 20.6991 17.0534 21.7793 17.0534H27.7715C28.0892 17.0534 28.3477 17.3119 28.3477 17.6296V20.3952Z" fill="#ADADAD"/>
<path d="M21.6836 18.4375C21.5321 18.4375 21.3834 18.4991 21.2762 18.6063C21.1691 18.7135 21.1074 18.8616 21.1074 19.0137C21.1074 19.1652 21.169 19.3139 21.2762 19.421C21.3834 19.5281 21.5321 19.5898 21.6836 19.5898C21.8357 19.5898 21.9838 19.5282 22.0909 19.421C22.1986 19.3139 22.2598 19.1652 22.2598 19.0137C22.2598 18.8621 22.1986 18.7135 22.0909 18.6063C21.9838 18.4991 21.8357 18.4375 21.6836 18.4375Z" fill="#ADADAD"/>
<path d="M13.5977 28.3477C13.4461 28.3477 13.2975 28.4092 13.1903 28.5165C13.0831 28.6237 13.0215 28.7723 13.0215 28.9238C13.0215 29.0754 13.0831 29.224 13.1903 29.3311C13.2975 29.4383 13.4461 29.5 13.5977 29.5C13.7492 29.5 13.8978 29.4383 14.005 29.3311C14.1121 29.224 14.1738 29.0754 14.1738 28.9238C14.1738 28.7723 14.1122 28.6236 14.005 28.5165C13.8978 28.4093 13.7492 28.3477 13.5977 28.3477Z" fill="#ADADAD"/>
</svg>
