<svg width="29" height="28" viewBox="0 0 29 28" fill="none" xmlns="http://www.w3.org/2000/svg">
<path d="M26.4512 6.5625H22.9938C23.5283 5.8765 23.8457 5.0242 23.8457 4.10156C23.8457 1.83996 21.94 0 19.5977 0C18.1867 0 17.1462 0.488086 16.3233 1.53601C15.6349 2.41276 15.1314 3.63688 14.5 5.18355C13.8686 3.63683 13.3651 2.41276 12.6767 1.53601C11.8538 0.488086 10.8133 0 9.40234 0C7.05997 0 5.1543 1.83996 5.1543 4.10156C5.1543 5.0242 5.47165 5.8765 6.00623 6.5625H2.54883C1.1434 6.5625 0 7.66648 0 9.02344V10.6641C0 11.7335 0.71033 12.6453 1.69922 12.9839V25.5391C1.69922 26.896 2.84262 28 4.24805 28H24.752C26.1574 28 27.3008 26.896 27.3008 25.5391V12.9839C28.2897 12.6453 29 11.7335 29 10.6641V9.02344C29 7.66648 27.8566 6.5625 26.4512 6.5625ZM16.0595 5.83734C17.3611 2.64917 17.8559 1.64062 19.5977 1.64062C21.0031 1.64062 22.1465 2.7446 22.1465 4.10156C22.1465 5.45852 21.0031 6.5625 19.5977 6.5625H15.7623C15.8665 6.31012 15.9657 6.06714 16.0595 5.83734ZM9.40234 1.64062C11.1441 1.64062 11.6389 2.64917 12.9405 5.83734C13.0343 6.06714 13.1335 6.31012 13.2376 6.5625H9.40234C7.99692 6.5625 6.85352 5.45852 6.85352 4.10156C6.85352 2.7446 7.99692 1.64062 9.40234 1.64062ZM11.1016 26.3594H4.24805C3.77957 26.3594 3.39844 25.9914 3.39844 25.5391V13.125H11.1016V26.3594ZM11.1016 11.4844H2.54883C2.08035 11.4844 1.69922 11.1164 1.69922 10.6641V9.02344C1.69922 8.57112 2.08035 8.20312 2.54883 8.20312H11.1016V11.4844ZM16.1992 26.3594H12.8008V8.20312C12.9788 8.20312 15.2227 8.20312 16.1992 8.20312V26.3594ZM25.6016 25.5391C25.6016 25.9914 25.2204 26.3594 24.752 26.3594H17.8984V13.125H25.6016V25.5391ZM27.3008 10.6641C27.3008 11.1164 26.9196 11.4844 26.4512 11.4844H17.8984V8.20312H26.4512C26.9196 8.20312 27.3008 8.57112 27.3008 9.02344V10.6641Z" fill="#ADADAD"/>
</svg>
