<svg width="28" height="28" viewBox="0 0 28 28" fill="none" xmlns="http://www.w3.org/2000/svg">
<path d="M5.99415 17.4336H1.43555C1.12272 17.4336 0.869141 17.6872 0.869141 18V27.4344C0.869141 27.7472 1.12272 28.0008 1.43555 28.0008H5.99415C6.30698 28.0008 6.56056 27.7472 6.56056 27.4344V18C6.56056 17.6872 6.30698 17.4336 5.99415 17.4336ZM5.42775 26.868H2.00195V18.5664H5.42775V26.868Z" fill="#F05722"/>
<path d="M12.6739 11.25H8.11523C7.80241 11.25 7.54883 11.5036 7.54883 11.8164V27.4328C7.54883 27.7456 7.80241 27.9992 8.11523 27.9992H12.6739C12.9867 27.9992 13.2403 27.7456 13.2403 27.4328V11.8164C13.2403 11.5036 12.9867 11.25 12.6739 11.25ZM12.1075 26.8664H8.68164V12.3828H12.1075V26.8664Z" fill="#F05722"/>
<path d="M26.0313 8.44531H21.4727C21.1598 8.44531 20.9062 8.69895 20.9062 9.01172V27.4331C20.9062 27.7459 21.1598 27.9995 21.4727 27.9995H26.0313C26.3441 27.9995 26.5977 27.7459 26.5977 27.4331V9.01172C26.5977 8.69889 26.3441 8.44531 26.0313 8.44531ZM25.4649 26.8667H22.0391V9.57812H25.4649V26.8667Z" fill="#F05722"/>
<path d="M19.3516 12.9336H14.793C14.4801 12.9336 14.2266 13.1872 14.2266 13.5V27.4333C14.2266 27.7461 14.4801 27.9997 14.793 27.9997H19.3516C19.6644 27.9997 19.918 27.7461 19.918 27.4333V13.5C19.918 13.1872 19.6643 12.9336 19.3516 12.9336ZM18.7852 26.8669H15.3594V14.0664H18.7852V26.8669Z" fill="#F05722"/>
<path d="M26.9918 0.344901C26.8655 0.201147 26.6751 0.130687 26.4856 0.158214L23.7887 0.547108C23.4791 0.591741 23.2643 0.878909 23.309 1.18856C23.3536 1.49822 23.6409 1.71345 23.9504 1.66831L24.7384 1.55469L17.5335 8.0231L10.6318 4.83259C10.4188 4.73421 10.1674 4.7772 9.99925 4.94066L2.23597 12.4905C2.01173 12.7086 2.00669 13.0672 2.22482 13.2915C2.33583 13.4057 2.48327 13.463 2.63093 13.463C2.77321 13.463 2.91566 13.4097 3.02577 13.3026L10.5099 6.02426L17.3967 9.20786C17.6021 9.30273 17.8443 9.26642 18.0128 9.11519L25.5152 2.37966L25.2894 3.18939C25.2053 3.49072 25.3815 3.80309 25.6828 3.88715C25.7337 3.90131 25.7849 3.90811 25.8353 3.90811C26.0832 3.90805 26.3107 3.74408 26.3806 3.49372L27.112 0.870979C27.1635 0.686558 27.1183 0.488712 26.9918 0.344901Z" fill="#F05722"/>
</svg>
