<svg width="27" height="27" ><path  d="M14.909 27c3.241 0 6.285-1.412 8.57-3.976C25.75 20.477 27 17.094 27 13.5c0-2.972-.848-5.79-2.451-8.151a.527.527 0 0 0-.873.592c1.485 2.186 2.27 4.8 2.27 7.559 0 6.86-4.947 12.44-11.029 12.445-.634 0-1.267-.06-1.89-.18-2.523-.49-4.834-1.974-6.509-4.182-1.706-2.249-2.645-5.12-2.645-8.083s.94-5.834 2.645-8.084c1.675-2.207 3.986-3.692 6.51-4.181a9.925 9.925 0 0 1 1.882-.18c2.788 0 5.45 1.176 7.495 3.312a.527.527 0 0 0 .762-.73C20.92 1.292 17.987 0 14.909 0H12.09C8.85 0 5.806 1.412 3.521 3.976 1.25 6.523 0 9.906 0 13.5a14.81 14.81 0 0 0 .866 5.029.527.527 0 1 0 .993-.357 13.76 13.76 0 0 1-.804-4.672C1.055 7.61 4.7 2.665 9.58 1.38a12.424 12.424 0 0 0-3.902 3.399c-1.845 2.432-2.86 5.529-2.86 8.721s1.015 6.29 2.86 8.72a12.425 12.425 0 0 0 3.9 3.398 10.276 10.276 0 0 1-2.935-1.294c-1.611-1.034-2.978-2.52-3.952-4.3a.53.53 0 0 0-.873-.078.526.526 0 0 0-.052.584c1.058 1.934 2.548 3.553 4.307 4.682A11.135 11.135 0 0 0 12.091 27h2.818Z"/><path  d="M13.527 23.173c-1.864-.366-3.592-1.492-4.864-3.17C7.3 18.208 6.55 15.898 6.55 13.5c0-1.798.422-3.56 1.222-5.095a.528.528 0 1 0-.936-.487c-.877 1.685-1.34 3.615-1.34 5.582 0 2.627.826 5.163 2.326 7.142 1.431 1.886 3.387 3.153 5.513 3.57l.021.003a8.265 8.265 0 0 0 1.557.149c2.467 0 4.803-1.103 6.578-3.104.297-.336.573-.69.827-1.06a.528.528 0 1 0-.87-.596 9.85 9.85 0 0 1-.747.956c-1.571 1.773-3.627 2.749-5.788 2.749a7.195 7.195 0 0 1-1.386-.135ZM23.387 18.225c.626-1.496.945-3.103.937-4.725 0-2.938-1.009-5.695-2.84-7.76-1.775-2.002-4.11-3.103-6.578-3.103a8.23 8.23 0 0 0-1.557.147l-.01.002a.553.553 0 0 0-.015.003c-1.997.39-3.869 1.551-5.272 3.268a.527.527 0 0 0 .817.668c1.246-1.525 2.896-2.554 4.65-2.9a2.01 2.01 0 0 0 .019-.003l.008-.001a7.17 7.17 0 0 1 1.36-.13c2.162 0 4.217.976 5.789 2.748 1.66 1.873 2.574 4.38 2.574 7.061a11.045 11.045 0 0 1-.854 4.315.528.528 0 1 0 .972.41Z"/><mask id="a" fill="#fff"><path fill-rule="evenodd" d="M11.84 10.988h6.113c1.696 0 2.337.687 2.337 1.694v1.085c0 1.006-.64 1.693-2.337 1.693h-4.426V18H11.84v-2.54h-1.439v-1.274h1.439v-3.198Zm6.278 3.197c.332 0 .486-.15.486-.408V12.71c0-.268-.165-.457-.496-.457h-4.581v1.931h4.591Z" clip-rule="evenodd"/></mask><path  d="M11.84 10.988v-.1h-.1v.1h.1Zm2.248 4.472v-.1h-.1v.1h.1Zm0 0v.1h.1v-.1h-.1Zm-.561 0v-.1h-.1v.1h.1Zm0 2.54v.1h.1V18h-.1Zm-1.686 0h-.1v.1h.1V18Zm0-2.54h.1v-.1h-.1v.1Zm-1.439 0h-.1v.1h.1v-.1Zm0-1.274v-.1h-.1v.1h.1Zm1.439 0v.1h.1v-.1h-.1Zm6.763-.41v-.1h-.1v.1h.1Zm0 0v.1h.1v-.1h-.1Zm-5.077-1.522v-.1h-.1v.1h.1Zm0 1.931h-.1v.1h.1v-.1Zm4.426-3.297H11.84v.2h6.112v-.2Zm2.437 1.794c0-.526-.168-.982-.57-1.303-.397-.317-1.008-.49-1.867-.49v.2c.837 0 1.395.17 1.742.447.343.274.495.665.495 1.146h.2Zm0 1.085v-1.085h-.2v1.085h.2Zm-2.438 1.793c.86 0 1.47-.174 1.868-.491.402-.321.57-.777.57-1.302h-.2c0 .48-.152.871-.495 1.146-.347.277-.905.447-1.742.447v.2Zm-3.864 0h3.865v-.2h-3.865v.2Zm-.1-.1h.2-.2Zm.1-.1h-.561v.2h.56v-.2ZM13.627 18v-2.54h-.2V18h.2Zm-1.786.1h1.686v-.2H11.84v.2Zm-.1-2.64V18h.2v-2.54h-.2Zm.1-.1h-1.439v.2h1.439v-.2Zm-1.339.1v-1.274h-.2v1.274h.2Zm-.1-1.174h1.439v-.2h-1.439v.2Zm1.339-3.298v3.198h.2v-3.198h-.2Zm6.763 2.789c0 .109-.032.18-.084.226-.055.048-.15.082-.302.082v.2c.179 0 .328-.04.433-.131a.48.48 0 0 0 .153-.377h-.2Zm.1-.1v.2-.2Zm-.1-.966v1.066h.2V12.71h-.2Zm-.396-.357c.147 0 .243.041.303.1.06.057.094.143.094.257h.2a.546.546 0 0 0-.155-.4.614.614 0 0 0-.442-.157v.2Zm-4.581 0h4.581v-.2h-4.581v.2Zm.1 1.832v-1.932h-.2v1.931h.2Zm4.491-.1h-4.591v.2h4.591v-.2Z" mask="url(#a)"/><path  fill-rule="evenodd" d="M11.438 10h6.112c1.697 0 2.338.687 2.338 1.693v1.085c0 1.007-.641 1.694-2.338 1.694H13.125v2.54h-1.687v-2.54H10v-1.275h1.438V10Zm6.278 3.197c.331 0 .486-.15.486-.408v-1.066c0-.269-.166-.458-.496-.458h-4.582v1.932h4.592Z" clip-rule="evenodd"/></svg>