<svg width="29" height="24" ><path  d="m28.385 7.34-3.816-5.892a1.592 1.592 0 0 0-1.341-.73H6.392c-.544 0-1.045.273-1.34.728L1.224 7.34a1.602 1.602 0 0 0 .147 1.933l12.239 13.74a1.6 1.6 0 0 0 2.386 0l12.24-13.74c.478-.536.539-1.33.149-1.932Zm-5.93-5.251-3.21 4.962-3.21-4.962h6.42Zm-4.468 5.538H11.62l3.183-4.92 3.183 4.92ZM13.572 2.09l-3.203 4.949-3.2-4.95h6.403Zm-7.67.564 3.217 4.974H2.671L5.9 2.653ZM2.96 8.998h6.895L13.5 20.83 2.96 8.998Zm11.843 11.408L11.288 8.998h7.03l-3.515 11.408Zm1.303.425L19.75 8.998h6.896L16.106 20.83Zm4.399-13.204 3.214-4.97 3.22 4.97h-6.434Z"/></svg>