<svg width="29" height="28" ><path  d="M26.451 6.563h-3.457a3.99 3.99 0 0 0 .852-2.461C23.846 1.84 21.94 0 19.598 0c-1.411 0-2.452.488-3.275 1.536-.688.877-1.192 2.1-1.823 3.648-.631-1.547-1.135-2.771-1.823-3.648C11.854.488 10.813 0 9.402 0 7.06 0 5.154 1.84 5.154 4.102c0 .922.318 1.774.852 2.46H2.55C1.143 6.563 0 7.667 0 9.024v1.641c0 1.07.71 1.981 1.7 2.32v12.555C1.7 26.896 2.842 28 4.247 28h20.504c1.405 0 2.549-1.104 2.549-2.46V12.983c.989-.339 1.699-1.25 1.699-2.32v-1.64c0-1.358-1.143-2.461-2.549-2.461ZM16.06 5.837c1.302-3.188 1.797-4.196 3.539-4.196 1.405 0 2.549 1.104 2.549 2.46 0 1.358-1.144 2.462-2.55 2.462h-3.835c.104-.253.204-.496.297-.726ZM9.402 1.641c1.742 0 2.237 1.008 3.539 4.196.093.23.192.473.297.726H9.402c-1.405 0-2.548-1.104-2.548-2.461 0-1.357 1.143-2.461 2.548-2.461Zm1.7 24.718H4.248c-.468 0-.85-.368-.85-.82V13.125h7.704v13.234Zm0-14.875H2.549c-.469 0-.85-.368-.85-.82v-1.64c0-.453.381-.82.85-.82h8.553v3.28Zm5.097 14.875h-3.398V8.203h3.398V26.36Zm9.403-.82c0 .452-.382.82-.85.82h-6.854V13.125h7.704v12.414ZM27.3 10.664c0 .452-.381.82-.85.82h-8.553v-3.28h8.553c.469 0 .85.367.85.82v1.64Z"/></svg>