<svg  width="28" height="28" ><path  d="M5.994 17.434H1.436A.566.566 0 0 0 .869 18v9.434c0 .313.254.567.567.567h4.558a.566.566 0 0 0 .567-.567V18a.566.566 0 0 0-.567-.566Zm-.566 9.434H2.002v-8.302h3.426v8.302ZM12.674 11.25H8.115a.566.566 0 0 0-.566.566v15.617c0 .313.253.566.566.566h4.559a.566.566 0 0 0 .566-.566V11.816a.566.566 0 0 0-.566-.566Zm-.566 15.616H8.681V12.383h3.425v14.483ZM26.031 8.445h-4.558a.566.566 0 0 0-.567.567v18.421c0 .313.254.567.567.567h4.558a.566.566 0 0 0 .567-.567V9.012a.566.566 0 0 0-.567-.567Zm-.566 18.422h-3.426V9.578h3.426v17.289ZM19.352 12.934h-4.559a.566.566 0 0 0-.566.566v13.933c0 .313.253.567.566.567h4.559a.566.566 0 0 0 .566-.567V13.5a.566.566 0 0 0-.566-.566Zm-.567 13.933H15.36v-12.8h3.426v12.8Z"/><path  d="M26.992.345a.566.566 0 0 0-.506-.187l-2.697.39a.566.566 0 1 0 .161 1.12l.788-.113-7.204 6.468-6.902-3.19a.567.567 0 0 0-.633.108l-7.763 7.55a.566.566 0 0 0 .79.812l7.484-7.279 6.887 3.184a.567.567 0 0 0 .616-.093l7.502-6.735-.226.81a.566.566 0 1 0 1.092.304L27.112.87a.566.566 0 0 0-.12-.526Z"/></svg>