<svg xmlns="http://www.w3.org/2000/svg" width="232" height="166" fill="none"><g filter="url(#a)"><rect width="208.932" height="34" x="33.572" y="12.778" fill="url(#b)" rx="3" transform="rotate(29.47 33.572 12.778)"/></g><path fill="#fff" d="m99.497 70.467 1.366.772.187 1.27.231 1.169.371 2.314-1.499-.847-.268-1.57-.088-.892-.3-2.216Zm4.769 1.168c-.469.829-1.024 1.445-1.666 1.849-.641.405-1.317.608-2.029.61-.709.001-1.398-.188-2.069-.567-.675-.381-1.194-.877-1.558-1.487-.363-.61-.536-1.294-.52-2.051.017-.758.26-1.55.726-2.375.468-.829 1.023-1.446 1.663-1.85.64-.406 1.314-.609 2.023-.61.71-.003 1.402.186 2.078.568.67.378 1.187.873 1.55 1.483.367.609.543 1.292.526 2.05-.015.758-.256 1.552-.724 2.38Zm-1.629-.92c.303-.537.479-1.035.526-1.494.05-.458-.016-.864-.197-1.218a2.079 2.079 0 0 0-.855-.86c-.389-.22-.781-.316-1.178-.29-.397.028-.78.18-1.15.458-.366.279-.7.686-1.004 1.223-.303.537-.48 1.034-.53 1.492-.048.46.02.866.201 1.22.182.354.467.64.855.86.389.22.781.316 1.178.29.397-.028.779-.18 1.146-.46.369-.277.705-.685 1.008-1.221Zm5.667 5.014 1.85-3.272 1.58.893-3.22 5.698-1.518-.857.585-1.035-.059-.034a1.932 1.932 0 0 1-1.097.442c-.411.035-.831-.068-1.259-.31a2.199 2.199 0 0 1-.858-.828 2.047 2.047 0 0 1-.262-1.122c.02-.41.154-.838.403-1.284l2.051-3.629 1.58.894-1.891 3.346c-.188.338-.248.654-.18.95.067.297.251.53.55.698.191.108.393.165.608.172.216.005.423-.05.623-.166.201-.115.373-.3.514-.556Zm3.038 5.06a2.721 2.721 0 0 1-.865-.739 1.8 1.8 0 0 1-.355-.95c-.02-.344.076-.704.288-1.08.179-.316.387-.55.625-.699.238-.15.494-.233.769-.251.274-.018.558.012.85.089.295.079.591.184.889.316.351.153.636.272.855.357.221.082.395.118.522.108a.357.357 0 0 0 .292-.197l.013-.022c.132-.235.161-.459.085-.671-.073-.211-.245-.393-.514-.546-.285-.16-.546-.225-.786-.194a1 1 0 0 0-.598.279l-1.395-.945c.27-.304.585-.521.946-.65a2.41 2.41 0 0 1 1.173-.11c.424.056.864.214 1.319.47.317.18.599.388.846.626.25.239.444.5.581.783.139.284.205.586.198.905-.006.317-.105.644-.296.983l-2.172 3.844-1.499-.848.447-.79-.045-.025a1.845 1.845 0 0 1-.633.264 1.951 1.951 0 0 1-.731.003 2.62 2.62 0 0 1-.809-.31Zm1.069-.835c.232.131.464.201.693.21.232.007.443-.04.633-.141.191-.101.343-.252.457-.452l.341-.605a.973.973 0 0 1-.254-.026 4.181 4.181 0 0 1-.325-.091 15.78 15.78 0 0 1-.351-.125 271.12 271.12 0 0 0-.312-.122 2.253 2.253 0 0 0-.56-.145.892.892 0 0 0-.459.059.678.678 0 0 0-.325.305c-.121.216-.136.424-.045.626.096.2.265.37.507.507Zm9.301-3.471-4.294 7.598-1.58-.894 4.294-7.597 1.58.893Zm-3.028 8.313 3.221-5.698 1.58.893-3.22 5.698-1.581-.893Zm4.43-5.984a.986.986 0 0 1-.473-.576.873.873 0 0 1 .072-.708.853.853 0 0 1 .566-.42.978.978 0 0 1 .739.105c.234.133.39.325.466.577.08.25.059.485-.064.703a.863.863 0 0 1-.573.425.971.971 0 0 1-.733-.106Zm4.702 3.626-.671 1.187-3.517-1.987.671-1.187 3.517 1.987Zm-5.933 4.166 3.453-6.11c.234-.413.508-.71.822-.892a1.78 1.78 0 0 1 1.014-.234c.359.023.718.136 1.076.339.243.137.453.28.633.43.182.152.314.271.396.357l-.953 1.027a2.308 2.308 0 0 0-.199-.185 1.63 1.63 0 0 0-.259-.181c-.233-.132-.426-.169-.579-.112-.151.055-.282.179-.391.371l-3.436 6.081-1.577-.891Zm3.446 4.767a3.55 3.55 0 0 1-.537-.367 2.36 2.36 0 0 1-.365-.359l1.023-.978c.153.162.302.287.448.376a.73.73 0 0 0 .448.116c.153-.011.315-.086.485-.225l.229-.189 1.268-7.017 1.663.94-1.186 4.85.06.034 3.555-3.511 1.674.945-5.784 5.063a3.032 3.032 0 0 1-.887.556c-.31.128-.639.175-.986.142-.348-.03-.718-.156-1.108-.376Zm19.45-1.852-4.294 7.598-1.388-.785-.603-6.65-.055-.031-2.703 4.782-1.606-.908 4.293-7.598 1.41.797.579 6.632.067.037 2.701-4.778 1.599.904Zm-.485 9.897c-.576-.325-1.006-.73-1.288-1.212a2.89 2.89 0 0 1-.385-1.579c.023-.57.199-1.148.529-1.732.332-.589.737-1.039 1.213-1.35a2.854 2.854 0 0 1 1.551-.485c.561-.01 1.129.149 1.705.474.576.326 1.004.73 1.282 1.214.282.483.412 1.01.389 1.58-.021.57-.198 1.148-.531 1.737-.33.584-.734 1.033-1.211 1.347a2.882 2.882 0 0 1-1.555.482c-.557.008-1.123-.15-1.699-.476Zm.699-1.22c.262.148.523.198.783.149.261-.052.509-.183.745-.392.238-.208.451-.478.638-.809.187-.331.309-.653.364-.964.058-.31.041-.59-.049-.84s-.267-.45-.529-.598c-.264-.15-.53-.2-.795-.15-.264.05-.515.178-.753.386-.236.21-.447.48-.635.812a3.145 3.145 0 0 0-.367.962 1.6 1.6 0 0 0 .056.844c.097.25.278.45.542.6Zm4.177 3.829 1.67-6.575 1.599.904-1.281 4.328.052.029 3.084-3.308 1.569.886-1.216 4.335.048.027 3.02-3.315 1.595.901-4.768 4.824-1.673-.945 1.046-4.138-.07-.04-3.005 3.031-1.67-.944Zm13.945-2.144-3.152 5.239-1.357-.768 2.858-5.404 1.651.933Zm-5.172 7.229a.992.992 0 0 1-.484-.616.973.973 0 0 1 .096-.777.958.958 0 0 1 .612-.477.998.998 0 0 1 .778.097.993.993 0 0 1 .473.61.976.976 0 0 1-.465 1.152 1.107 1.107 0 0 1-.506.14.958.958 0 0 1-.504-.129Z"/><defs><linearGradient id="b" x1="138.038" x2="138.038" y1="12.778" y2="46.778" gradientUnits="userSpaceOnUse"><stop stop-color="#FA2256"/><stop offset="1" stop-color="#AA1035"/></linearGradient><filter id="a" width="230.452" height="164.212" x=".933" y=".865" color-interpolation-filters="sRGB" filterUnits="userSpaceOnUse"><feFlood flood-opacity="0" result="BackgroundImageFix"/><feColorMatrix in="SourceAlpha" result="hardAlpha" values="0 0 0 0 0 0 0 0 0 0 0 0 0 0 0 0 0 0 127 0"/><feOffset dy="4"/><feGaussianBlur stdDeviation="8.5"/><feComposite in2="hardAlpha" operator="out"/><feColorMatrix values="0 0 0 0 0 0 0 0 0 0 0 0 0 0 0 0 0 0 0.25 0"/><feBlend in2="BackgroundImageFix" result="effect1_dropShadow_7445_1198"/><feBlend in="SourceGraphic" in2="effect1_dropShadow_7445_1198" result="shape"/></filter></defs></svg>