<svg width="346" height="78" viewBox="0 0 346 78" fill="none" xmlns="http://www.w3.org/2000/svg">
<path fill-rule="evenodd" clip-rule="evenodd" d="M253.808 41.4361H252.758L239.096 1.81812H223.094V3.45612L242.366 58.7821H263.618L282.896 3.45612V1.81812H267.59L253.802 41.4361H253.808Z" fill="white"/>
<path d="M218.834 1.81812H202.922V58.7761H218.834V1.81812Z" fill="white"/>
<path fill-rule="evenodd" clip-rule="evenodd" d="M330.166 1.81203H330.178L316.39 41.442H315.34L301.678 1.81803H285.676V3.46803L306.61 63.576H286.786V76.77H306.16C314.434 76.77 320.878 73.98 324.004 65.076C324.424 63.888 345.472 3.45603 345.472 3.45603V1.80603H330.166V1.81203Z" fill="white"/>
<path fill-rule="evenodd" clip-rule="evenodd" d="M121.835 0.27002C114.599 0.27002 107.837 3.95402 103.619 10.878H102.641V1.87802H87.4727V76.752H103.589V51.528H104.579C104.687 51.678 104.795 51.834 104.903 51.96C107.621 55.266 113.969 60.306 121.865 60.306C136.235 60.306 146.063 47.886 146.063 30.294C146.063 12.702 135.749 0.27002 121.835 0.27002ZM117.023 47.958C109.523 47.958 104.345 42.114 104.345 30.3C104.345 18.486 109.523 12.642 117.023 12.642C124.523 12.642 129.953 18.612 129.953 30.3C129.953 41.988 124.649 47.958 117.023 47.958Z" fill="white"/>
<path fill-rule="evenodd" clip-rule="evenodd" d="M186.034 1.81201C178.564 1.81201 173.77 3.06001 170.968 10.878H170.007V1.81801H146.938V14.898H152.086C153.784 14.898 154.618 15.498 154.834 16.89V27.762H154.893V58.782H171.01V28.566C171.01 20.742 173.133 15.948 180.957 15.948H197.842V1.81201H186.04H186.034Z" fill="white"/>
<path d="M30.5313 60.2881C47.0973 60.2881 60.5313 46.8541 60.5313 30.2881C60.5313 13.7221 47.0973 0.288086 30.5313 0.288086C13.9653 0.288086 0.53125 13.7221 0.53125 30.2881C0.53125 46.8541 13.9653 60.2881 30.5313 60.2881Z" fill="white"/>
<path d="M30.5293 77.73C41.8513 77.73 51.0313 75.798 51.0313 73.428C51.0313 71.058 41.8573 69.126 30.5293 69.126C19.2013 69.126 10.0273 71.058 10.0273 73.428C10.0273 75.798 19.2013 77.73 30.5293 77.73Z" fill="white"/>
</svg>
